<svg width="290" height="145" viewBox="0 0 290 145" fill="none" xmlns="http://www.w3.org/2000/svg">
<path d="M107.8 0.399999C107.267 6.39999 106.867 12.2 106.6 17.8C106.467 23.4 106.4 27.7333 106.4 30.8C106.4 33.7333 106.467 36.5333 106.6 39.2C106.733 41.8667 106.867 44.1333 107 46H102.4C100.667 35.6 98.2667 27.4667 95.2 21.6C92.1333 15.6 88.3333 11.3333 83.8 8.8C79.4 6.26666 74.1333 4.99999 68 4.99999H61.4C57.5333 4.99999 54.6 5.33332 52.6 6C50.6 6.66666 49.2667 8 48.6 9.99999C47.9333 12 47.6 15.0667 47.6 19.2V119.6C47.6 124.8 48.1333 128.667 49.2 131.2C50.2667 133.733 52.3333 135.4 55.4 136.2C58.4667 137 63 137.467 69 137.6V142C64.8667 141.867 59.5333 141.733 53 141.6C46.4667 141.467 39.6 141.4 32.4 141.4C26.6667 141.4 21.0667 141.467 15.6 141.6C10.1333 141.733 5.2 141.867 0.8 142V138C5.06667 137.733 8.26667 137.2 10.4 136.4C12.5333 135.6 13.9333 134 14.6 131.6C15.4 129.2 15.8 125.6 15.8 120.8V21.6C15.8 16.6667 15.4 13.0667 14.6 10.8C13.9333 8.4 12.4667 6.8 10.2 6C8.06667 5.06666 4.93333 4.53333 0.8 4.4V0.399999C6.26667 0.533331 12.0667 0.666662 18.2 0.799994C24.3333 0.799994 30.4 0.86666 36.4 0.999991C42.4 0.999991 48 0.999991 53.2 0.999991C58.4 0.999991 62.6667 0.999991 66 0.999991C72.1333 0.999991 79.0667 0.999991 86.8 0.999991C94.6667 0.86666 101.667 0.666662 107.8 0.399999ZM78 69.6C78 69.6 78 70.2667 78 71.6C78 72.9333 78 73.6 78 73.6H41.6C41.6 73.6 41.6 72.9333 41.6 71.6C41.6 70.2667 41.6 69.6 41.6 69.6H78ZM83 43.2C82.4667 50.8 82.2 56.6 82.2 60.6C82.3333 64.6 82.4 68.2667 82.4 71.6C82.4 74.9333 82.4667 78.6 82.6 82.6C82.7333 86.6 83.0667 92.4 83.6 100H79C78.2 95.3333 76.9333 91 75.2 87C73.4667 83 70.9333 79.8 67.6 77.4C64.2667 74.8667 59.9333 73.6 54.6 73.6V69.6C58.6 69.6 61.9333 68.8 64.6 67.2C67.4 65.4667 69.7333 63.2667 71.6 60.6C73.4667 57.8 74.9333 54.8667 76 51.8C77.0667 48.7333 77.8667 45.8667 78.4 43.2H83ZM128.031 114C133.231 114 137.365 115.4 140.431 118.2C143.498 120.867 145.031 124.6 145.031 129.4C145.031 134.2 143.498 138 140.431 140.8C137.365 143.467 133.231 144.8 128.031 144.8C122.831 144.8 118.698 143.467 115.631 140.8C112.565 138 111.031 134.2 111.031 129.4C111.031 124.6 112.565 120.867 115.631 118.2C118.698 115.4 122.831 114 128.031 114ZM228.538 -7.62939e-06L277.138 125.2C279.004 130 281.071 133.333 283.338 135.2C285.738 136.933 287.871 137.867 289.738 138V142C285.738 141.733 281.004 141.6 275.538 141.6C270.204 141.467 264.804 141.4 259.338 141.4C253.204 141.4 247.404 141.467 241.938 141.6C236.471 141.6 232.138 141.733 228.938 142V138C235.738 137.733 240.004 136.6 241.738 134.6C243.604 132.467 243.204 128 240.538 121.2L206.538 28.2L210.138 23L179.738 102.2C176.804 109.533 175.004 115.533 174.338 120.2C173.804 124.867 174.138 128.467 175.338 131C176.671 133.533 178.738 135.333 181.538 136.4C184.471 137.333 187.938 137.867 191.938 138V142C187.538 141.733 183.338 141.6 179.338 141.6C175.338 141.467 171.271 141.4 167.138 141.4C164.204 141.4 161.404 141.467 158.738 141.6C156.204 141.6 153.937 141.733 151.937 142V138C154.737 137.467 157.604 135.667 160.538 132.6C163.471 129.533 166.338 124.333 169.138 117L214.738 -7.62939e-06C216.871 0.133324 219.138 0.19999 221.538 0.19999C224.071 0.19999 226.404 0.133324 228.538 -7.62939e-06ZM242.538 84.4V88.4H182.938L184.938 84.4H242.538Z" fill="white"/>
</svg>
